<?xml version="1.0" standalone="no"?>
<!-- Generator: Adobe Fireworks 10, Export SVG Extension by Aaron Beall (http://fireworks.abeall.com) . Version: 0.6.1  -->
<!DOCTYPE svg PUBLIC "-//W3C//DTD SVG 1.1//EN" "http://www.w3.org/Graphics/SVG/1.1/DTD/svg11.dtd">
<svg id="manywho-app-logo.fw-Page%201" viewBox="0 0 120 120" style="background-color:#31b2e2" version="1.1"
	xmlns="http://www.w3.org/2000/svg" xmlns:xlink="http://www.w3.org/1999/xlink" xml:space="preserve"
	x="0px" y="0px" width="120px" height="120px"
>
	<g id="Layer%201">
		<path d="M 59.9995 15 C 35.1464 15 15 35.1473 15 60 C 15 84.8527 35.1464 105 59.9995 105 C 84.8536 105 105 86.2852 105 60 C 105 35.1473 84.8525 15 59.9995 15 ZM 59.9959 23.4167 C 79.1021 23.4167 94.7794 38.095 96.3677 56.7903 L 82.0667 56.7903 C 81.2113 56.7903 80.4631 57.1044 79.8222 57.7351 C 79.1812 58.3673 78.8595 59.1027 78.8595 59.9423 L 78.8621 60.0664 C 78.8595 60.1261 78.857 60.1874 78.857 60.2487 L 78.857 72.0354 C 78.857 72.6513 78.6363 73.1682 78.1905 73.5895 C 77.7462 74.0098 77.1972 74.2192 76.5384 74.2192 C 75.9807 74.2192 75.4649 74.0338 74.9859 73.6625 C 74.5099 73.2907 74.2709 72.7484 74.2709 72.0354 L 74.2709 60.2487 C 74.2709 59.3754 73.9492 58.6329 73.3098 58.0185 C 72.6683 57.4031 71.9038 57.0957 71.0167 57.0957 C 70.1945 57.0957 69.454 57.3786 68.7962 57.9455 C 68.1385 58.5114 67.8096 59.1982 67.8096 60.0077 L 67.8096 72.0354 C 67.7789 72.683 67.5307 73.209 67.0701 73.6125 C 66.6115 74.0169 66.1008 74.2192 65.5421 74.2192 C 64.916 74.2192 64.3838 74.0098 63.9385 73.5895 C 63.4952 73.1682 63.2562 72.636 63.222 71.9885 C 63.222 63.9441 63.2205 55.9017 63.2205 47.8558 C 63.2205 46.7236 62.9896 45.647 62.53 44.6282 C 62.0678 43.6104 61.4448 42.7208 60.6547 41.9609 C 59.8667 41.2015 58.9373 40.5953 57.8674 40.1418 C 56.801 39.6883 55.6586 39.4626 54.4416 39.4626 C 53.4549 39.4626 52.4923 39.6158 51.5562 39.9232 C 50.6195 40.2312 49.7549 40.7076 48.9669 41.3547 C 47.3889 40.0948 45.5483 39.4626 43.4443 39.4626 C 42.2937 39.4626 41.1839 39.6812 40.1155 40.1173 C 39.0456 40.5544 38.1085 41.1438 37.3041 41.8894 C 36.4988 42.633 35.8573 43.5216 35.3804 44.5567 C 34.9039 45.5909 34.6654 46.6899 34.6654 47.8558 L 34.6654 56.8924 L 23.6139 56.8924 C 25.1531 38.1491 40.8535 23.4167 59.9959 23.4167 ZM 59.9959 96.426 C 40.9541 96.426 25.3207 81.8499 23.6405 63.248 L 37.917 63.248 C 38.7724 63.248 39.5206 62.9329 40.1615 62.3007 C 40.8024 61.6699 41.1226 60.9346 41.1226 60.0945 L 41.1216 59.9709 C 41.1257 59.9106 41.1267 59.8493 41.1267 59.7881 L 41.1267 48.0003 C 41.1267 47.3859 41.3473 46.8686 41.7906 46.4478 C 42.2349 46.026 42.7865 45.8181 43.4443 45.8181 C 44.003 45.8181 44.5203 46.0035 44.9968 46.3748 C 45.4738 46.746 45.7118 47.2889 45.7118 48.0003 L 45.7118 59.7881 C 45.7118 60.6614 46.0335 61.4044 46.6739 62.0198 C 47.3153 62.6336 48.0798 62.94 48.9669 62.94 C 49.7892 62.94 50.5286 62.6581 51.1864 62.0913 C 51.8437 61.527 52.1721 60.8391 52.1721 60.0306 L 52.1721 48.0003 C 52.2062 47.3538 52.4514 46.8267 52.9126 46.4243 C 53.3732 46.0198 53.8829 45.8181 54.4416 45.8181 C 55.0662 45.8181 55.6009 46.026 56.0442 46.4478 C 56.4874 46.8686 56.7275 47.4028 56.7592 48.0483 C 56.7592 56.0947 56.7632 64.1381 56.7632 72.1825 C 56.7632 73.3137 56.994 74.3897 57.4537 75.4075 C 57.9133 76.4274 58.5389 77.316 59.3269 78.0749 C 60.1169 78.8358 61.0439 79.442 62.1138 79.895 C 63.1837 80.3484 64.3251 80.5742 65.5421 80.5742 C 66.5278 80.5742 67.4889 80.42 68.426 80.1135 C 69.3631 79.8061 70.2262 79.3296 71.0167 78.6826 C 72.5948 79.944 74.4354 80.5742 76.5384 80.5742 C 77.6915 80.5742 78.7997 80.3546 79.8681 79.9195 C 80.9355 79.4829 81.8742 78.893 82.6795 78.1484 C 83.4838 77.4059 84.1263 76.5157 84.6033 75.4816 C 85.0783 74.4459 85.3173 73.3469 85.3173 72.1825 L 85.3173 63.1459 L 96.3596 63.1443 C 94.7284 81.7963 79.0715 96.426 59.9959 96.426 Z" fill="#ffffff"/>
	</g>
</svg>